<svg xmlns="http://www.w3.org/2000/svg" viewBox="0 0 2000 2000" fill="none" preserveAspectRatio="xMidYMid meet" role="img">
<path d="M917.582 2000L956.044 1208.79L692.308 1956.04L538.462 1895.6L879.121 1175.82L351.648 1769.23L230.769 1648.35L824.176 1120.88L104.396 1461.54L43.956 1307.69L791.209 1043.96L0 1082.42V917.582L791.209 961.538L43.956 692.308L104.396 543.956L824.176 884.615L230.769 351.648L351.648 236.264L879.121 824.176L538.462 109.89L692.308 43.956L956.044 796.703L917.582 0H1082.42L1038.46 791.209L1307.69 43.956L1456.04 109.89L1115.38 824.176L1648.35 236.264L1763.74 351.648L1175.82 884.615L1890.11 543.956L1956.04 692.308L1203.3 961.538L2000 917.582V1082.42L1203.3 1043.96L1956.04 1307.69L1890.11 1461.54L1175.82 1120.88L1763.74 1648.35L1648.35 1769.23L1115.38 1175.82L1456.04 1895.6L1307.69 1956.04L1038.46 1208.79L1082.42 2000H917.582Z" fill="#202020"></path>
</svg>